<mxfile host="app.diagrams.net" modified="2023-10-11T01:35:11.757Z" agent="Mozilla/5.0 (Windows NT 10.0; Win64; x64) AppleWebKit/537.36 (KHTML, like Gecko) Chrome/117.0.0.0 Safari/537.36" etag="gtklODVLraVE1PrjrJGv" version="21.6.6" type="device">
  <diagram name="페이지-1" id="QL_9wsXnsaVIYpuiSXiQ">
    <mxGraphModel dx="2607" dy="1333" grid="1" gridSize="10" guides="1" tooltips="1" connect="1" arrows="1" fold="1" page="1" pageScale="1" pageWidth="827" pageHeight="1169" math="0" shadow="0">
      <root>
        <mxCell id="0" />
        <mxCell id="1" parent="0" />
        <mxCell id="ZIbTZjHyzcT9zax5rJuE-1" style="shape=rect;fillColor=none;strokeColor=none;shadow=1;strokeWidth=2;opacity=100.0;gliffyId=37;" vertex="1" parent="1">
          <mxGeometry x="370" y="80" width="320" height="572" as="geometry" />
        </mxCell>
        <mxCell id="ZIbTZjHyzcT9zax5rJuE-2" value="&lt;div style=&#39;width: 317.0px;height:auto;word-break: break-word;&#39;&gt;&lt;div align=&quot;center&quot;&gt;&lt;span style=&quot;font-size: 12px; font-family: Arial; white-space: pre-wrap; font-weight: bold; text-decoration: none; line-height: 14px; color: rgb(0, 0, 0);&quot;&gt;Title = public abstract class : MonoBehaviour &lt;/span&gt;&lt;/div&gt;&lt;div align=&quot;center&quot;&gt;&lt;span style=&quot;font-size: 12px; font-family: Arial; white-space: pre-wrap; font-weight: bold; text-decoration: none; line-height: 14px; color: rgb(0, 0, 0);&quot;&gt;타이틀 화면을 구성하는 추상 클래스&lt;/span&gt;&lt;/div&gt;&lt;/div&gt;" style="shape=rect;shadow=1;strokeWidth=2;fillColor=#ffffff;strokeColor=#000000;opacity=100.0;html=1;nl2Br=0;verticalAlign=top;align=center;spacingLeft=0.0;spacingRight=0;spacingTop=-5.0;spacingBottom=2;whiteSpace=wrap;gliffyId=38;" vertex="1" parent="ZIbTZjHyzcT9zax5rJuE-1">
          <mxGeometry width="320" height="32" as="geometry" />
        </mxCell>
        <mxCell id="ZIbTZjHyzcT9zax5rJuE-3" value="&lt;div style=&#39;width: 317.0px;height:auto;word-break: break-word;&#39;&gt;&lt;div align=&quot;left&quot;&gt;&lt;span style=&quot;font-size: 12px; font-family: Arial; white-space: pre-wrap; font-weight: normal; text-decoration: none; line-height: 14px; color: rgb(0, 0, 0);&quot;&gt;buttons = public List&amp;lt;Button&amp;gt; &lt;/span&gt;&lt;/div&gt;&lt;div align=&quot;left&quot;&gt;&lt;span style=&quot;font-size: 12px; font-family: Arial; white-space: pre-wrap; font-weight: normal; text-decoration: none; line-height: 14px; color: rgb(0, 0, 0);&quot;&gt;컨티뉴, 새 게임, 옵션, 갤러리, 종료 버튼 순서로 연결됨 &lt;/span&gt;&lt;/div&gt;&lt;div align=&quot;left&quot;&gt;&lt;span style=&quot;font-size: 12px; font-family: Arial; white-space: pre-wrap; font-weight: normal; text-decoration: none; line-height: 14px; color: rgb(0, 0, 0);&quot;&gt; &lt;/span&gt;&lt;/div&gt;&lt;div align=&quot;left&quot;&gt;&lt;span style=&quot;font-size: 12px; font-family: Arial; white-space: pre-wrap; font-weight: normal; text-decoration: none; line-height: 14px; color: rgb(0, 0, 0);&quot;&gt;confirmWindow= Confirm &lt;/span&gt;&lt;/div&gt;&lt;div align=&quot;left&quot;&gt;&lt;span style=&quot;font-size: 12px; font-family: Arial; white-space: pre-wrap; font-weight: normal; text-decoration: none; line-height: 14px; color: rgb(0, 0, 0);&quot;&gt;확인창 구성요소 &lt;/span&gt;&lt;/div&gt;&lt;div align=&quot;left&quot;&gt;&lt;span style=&quot;font-size: 12px; font-family: Arial; white-space: pre-wrap; font-weight: normal; text-decoration: none; line-height: 14px; color: rgb(0, 0, 0);&quot;&gt; &lt;/span&gt;&lt;/div&gt;&lt;div align=&quot;left&quot;&gt;&lt;span style=&quot;font-size: 12px; font-family: Arial; white-space: pre-wrap; font-weight: normal; text-decoration: none; line-height: 14px; color: rgb(0, 0, 0);&quot;&gt;events = List&amp;lt;ButtonClickedEvent&amp;gt;  &lt;/span&gt;&lt;/div&gt;&lt;div align=&quot;left&quot;&gt;&lt;span style=&quot;font-size: 12px; font-family: Arial; white-space: pre-wrap; font-weight: normal; text-decoration: none; line-height: 14px; color: rgb(0, 0, 0);&quot;&gt;확인창 버튼에 할당할 이벤트 목록 &lt;/span&gt;&lt;/div&gt;&lt;div align=&quot;left&quot;&gt;&lt;span style=&quot;font-size: 12px; font-family: Arial; white-space: pre-wrap; font-weight: normal; text-decoration: none; line-height: 14px; color: rgb(0, 0, 0);&quot;&gt; &lt;/span&gt;&lt;/div&gt;&lt;div align=&quot;left&quot;&gt;&lt;span style=&quot;font-size: 12px; font-family: Arial; white-space: pre-wrap; font-weight: normal; text-decoration: none; line-height: 14px; color: rgb(0, 0, 0);&quot;&gt;buttonField = VerticalLayoutGroup  &lt;/span&gt;&lt;/div&gt;&lt;div align=&quot;left&quot;&gt;&lt;span style=&quot;font-size: 12px; font-family: Arial; white-space: pre-wrap; font-weight: normal; text-decoration: none; line-height: 14px; color: rgb(0, 0, 0);&quot;&gt;버튼들이 존재하는 위치를 담당하는 컴포넌트&lt;/span&gt;&lt;/div&gt;&lt;/div&gt;" style="shape=rect;shadow=1;strokeWidth=2;fillColor=#ffffff;strokeColor=#000000;opacity=100.0;html=1;nl2Br=0;verticalAlign=top;align=left;spacingLeft=0.0;spacingRight=0;spacingTop=-5.0;spacingBottom=2;whiteSpace=wrap;gliffyId=40;" vertex="1" parent="ZIbTZjHyzcT9zax5rJuE-1">
          <mxGeometry y="32" width="320" height="158" as="geometry" />
        </mxCell>
        <mxCell id="ZIbTZjHyzcT9zax5rJuE-4" value="&lt;div style=&#39;width: 317.0px;height:auto;word-break: break-word;&#39;&gt;&lt;div align=&quot;left&quot;&gt;&lt;span style=&quot;font-size: 12px; font-family: Arial; white-space: pre-wrap; font-weight: normal; text-decoration: none; line-height: 14px; color: rgb(0, 0, 0);&quot;&gt;Continue() = public virtual void &lt;/span&gt;&lt;/div&gt;&lt;div align=&quot;left&quot;&gt;&lt;span style=&quot;font-size: 12px; font-family: Arial; white-space: pre-wrap; font-weight: normal; text-decoration: none; line-height: 14px; color: rgb(0, 0, 0);&quot;&gt;게임을 이어한다 &lt;/span&gt;&lt;/div&gt;&lt;div align=&quot;left&quot;&gt;&lt;span style=&quot;font-size: 12px; font-family: Arial; white-space: pre-wrap; font-weight: normal; text-decoration: none; line-height: 14px; color: rgb(0, 0, 0);&quot;&gt; &lt;/span&gt;&lt;/div&gt;&lt;div align=&quot;left&quot;&gt;&lt;span style=&quot;font-size: 12px; font-family: Arial; white-space: pre-wrap; font-weight: normal; text-decoration: none; line-height: 14px; color: rgb(0, 0, 0);&quot;&gt;NewGame() = public virtual void &lt;/span&gt;&lt;/div&gt;&lt;div align=&quot;left&quot;&gt;&lt;span style=&quot;font-size: 12px; font-family: Arial; white-space: pre-wrap; font-weight: normal; text-decoration: none; line-height: 14px; color: rgb(0, 0, 0);&quot;&gt;새 게임 &lt;/span&gt;&lt;/div&gt;&lt;div align=&quot;left&quot;&gt;&lt;span style=&quot;font-size: 12px; font-family: Arial; white-space: pre-wrap; font-weight: normal; text-decoration: none; line-height: 14px; color: rgb(0, 0, 0);&quot;&gt; &lt;/span&gt;&lt;/div&gt;&lt;div align=&quot;left&quot;&gt;&lt;span style=&quot;font-size: 12px; font-family: Arial; white-space: pre-wrap; font-weight: normal; text-decoration: none; line-height: 14px; color: rgb(0, 0, 0);&quot;&gt;Option() = public virtual void &lt;/span&gt;&lt;/div&gt;&lt;div align=&quot;left&quot;&gt;&lt;span style=&quot;font-size: 12px; font-family: Arial; white-space: pre-wrap; font-weight: normal; text-decoration: none; line-height: 14px; color: rgb(0, 0, 0);&quot;&gt;환경설정 &lt;/span&gt;&lt;/div&gt;&lt;div align=&quot;left&quot;&gt;&lt;span style=&quot;font-size: 12px; font-family: Arial; white-space: pre-wrap; font-weight: normal; text-decoration: none; line-height: 14px; color: rgb(0, 0, 0);&quot;&gt; &lt;/span&gt;&lt;/div&gt;&lt;div align=&quot;left&quot;&gt;&lt;span style=&quot;font-size: 12px; font-family: Arial; white-space: pre-wrap; font-weight: normal; text-decoration: none; line-height: 14px; color: rgb(0, 0, 0);&quot;&gt;Gallery() = public virtual void &lt;/span&gt;&lt;/div&gt;&lt;div align=&quot;left&quot;&gt;&lt;span style=&quot;font-size: 12px; font-family: Arial; white-space: pre-wrap; font-weight: normal; text-decoration: none; line-height: 14px; color: rgb(0, 0, 0);&quot;&gt;겔러리 화면 &lt;/span&gt;&lt;/div&gt;&lt;div align=&quot;left&quot;&gt;&lt;span style=&quot;font-size: 12px; font-family: Arial; white-space: pre-wrap; font-weight: normal; text-decoration: none; line-height: 14px; color: rgb(0, 0, 0);&quot;&gt; &lt;/span&gt;&lt;/div&gt;&lt;div align=&quot;left&quot;&gt;&lt;span style=&quot;font-size: 12px; font-family: Arial; white-space: pre-wrap; font-weight: normal; text-decoration: none; line-height: 14px; color: rgb(0, 0, 0);&quot;&gt;Exit() = public virtual void &lt;/span&gt;&lt;/div&gt;&lt;div align=&quot;left&quot;&gt;&lt;span style=&quot;font-size: 12px; font-family: Arial; white-space: pre-wrap; font-weight: normal; text-decoration: none; line-height: 14px; color: rgb(0, 0, 0);&quot;&gt;게임 종료 &lt;/span&gt;&lt;/div&gt;&lt;div align=&quot;left&quot;&gt;&lt;span style=&quot;font-size: 12px; font-family: Arial; white-space: pre-wrap; font-weight: normal; text-decoration: none; line-height: 14px; color: rgb(0, 0, 0);&quot;&gt; &lt;/span&gt;&lt;/div&gt;&lt;div align=&quot;left&quot;&gt;&lt;span style=&quot;font-size: 12px; font-family: Arial; white-space: pre-wrap; font-weight: normal; text-decoration: none; line-height: 14px; color: rgb(0, 0, 0);&quot;&gt;ButtonLock(bool) = public virtual void &lt;/span&gt;&lt;/div&gt;&lt;div align=&quot;left&quot;&gt;&lt;span style=&quot;font-size: 12px; font-family: Arial; white-space: pre-wrap; font-weight: normal; text-decoration: none; line-height: 14px; color: rgb(0, 0, 0);&quot;&gt;버튼들 활성화 / 비활성화 &lt;/span&gt;&lt;/div&gt;&lt;div align=&quot;left&quot;&gt;&lt;span style=&quot;font-size: 12px; font-family: Arial; white-space: pre-wrap; font-weight: normal; text-decoration: none; line-height: 14px; color: rgb(0, 0, 0);&quot;&gt; &lt;/span&gt;&lt;/div&gt;&lt;div align=&quot;left&quot;&gt;&lt;span style=&quot;font-size: 12px; font-family: Arial; white-space: pre-wrap; font-weight: normal; text-decoration: none; line-height: 14px; color: rgb(0, 0, 0);&quot;&gt;Init(RectTransform) = public virtual void  &lt;/span&gt;&lt;/div&gt;&lt;div align=&quot;left&quot;&gt;&lt;span style=&quot;font-size: 12px; font-family: Arial; white-space: pre-wrap; font-weight: normal; text-decoration: none; line-height: 14px; color: rgb(0, 0, 0);&quot;&gt;Init_(RectTransform) = public virtual IEnumerator  &lt;/span&gt;&lt;/div&gt;&lt;div align=&quot;left&quot;&gt;&lt;span style=&quot;font-size: 12px; font-family: Arial; white-space: pre-wrap; font-weight: normal; text-decoration: none; line-height: 14px; color: rgb(0, 0, 0);&quot;&gt;타이틀 초기화 &lt;/span&gt;&lt;/div&gt;&lt;div align=&quot;left&quot;&gt;&lt;span style=&quot;font-size: 12px; font-family: Arial; white-space: pre-wrap; font-weight: normal; text-decoration: none; line-height: 14px; color: rgb(0, 0, 0);&quot;&gt; &lt;/span&gt;&lt;/div&gt;&lt;div align=&quot;left&quot;&gt;&lt;span style=&quot;font-size: 12px; font-family: Arial; white-space: pre-wrap; font-weight: normal; text-decoration: none; line-height: 14px; color: rgb(0, 0, 0);&quot;&gt;CheckDialog(index) = public virtual void  &lt;/span&gt;&lt;/div&gt;&lt;div align=&quot;left&quot;&gt;&lt;span style=&quot;font-size: 12px; font-family: Arial; white-space: pre-wrap; font-weight: normal; text-decoration: none; line-height: 14px; color: rgb(0, 0, 0);&quot;&gt;확인창 체크 &lt;/span&gt;&lt;/div&gt;&lt;div align=&quot;left&quot;&gt;&lt;span style=&quot;font-size: 12px; font-family: Arial; white-space: pre-wrap; font-weight: normal; text-decoration: none; line-height: 14px; color: rgb(0, 0, 0);&quot;&gt; &lt;/span&gt;&lt;/div&gt;&lt;div align=&quot;left&quot;&gt;&lt;span style=&quot;font-size: 12px; font-family: Arial; white-space: pre-wrap; font-weight: normal; text-decoration: none; line-height: 14px; color: rgb(0, 0, 0);&quot;&gt;SetDialog(index) = public virtual void  &lt;/span&gt;&lt;/div&gt;&lt;div align=&quot;left&quot;&gt;&lt;span style=&quot;font-size: 12px; font-family: Arial; white-space: pre-wrap; font-weight: normal; text-decoration: none; line-height: 14px; color: rgb(0, 0, 0);&quot;&gt;확인창에 이벤트 붙여 실행&lt;/span&gt;&lt;/div&gt;&lt;/div&gt;" style="shape=rect;shadow=1;strokeWidth=2;fillColor=#ffffff;strokeColor=#000000;opacity=100.0;html=1;nl2Br=0;verticalAlign=top;align=left;spacingLeft=0.0;spacingRight=0;spacingTop=-5.0;spacingBottom=2;whiteSpace=wrap;gliffyId=42;" vertex="1" parent="ZIbTZjHyzcT9zax5rJuE-1">
          <mxGeometry y="190" width="320" height="382" as="geometry" />
        </mxCell>
        <mxCell id="ZIbTZjHyzcT9zax5rJuE-5" value="&lt;div style=&#39;width: 133.0px;height:auto;word-break: break-word;&#39;&gt;&lt;div align=&quot;center&quot;&gt;&lt;span style=&quot;font-size: 12px; font-family: Arial; white-space: pre-wrap; font-weight: bold; text-decoration: none; line-height: 14px; color: rgb(0, 0, 0);&quot;&gt;TitleList = ObjList&lt;/span&gt;&lt;/div&gt;&lt;/div&gt;" style="shape=rect;shadow=1;strokeWidth=2;fillColor=#ffffff;strokeColor=#000000;opacity=100.0;html=1;nl2Br=0;verticalAlign=middle;align=center;spacingLeft=2.0;spacingRight=0;whiteSpace=wrap;gliffyId=35;" vertex="1" parent="1">
          <mxGeometry x="750" y="349.5" width="140" height="35" as="geometry" />
        </mxCell>
        <mxCell id="ZIbTZjHyzcT9zax5rJuE-6" style="shape=filledEdge;strokeWidth=2;strokeColor=#000000;fillColor=none;startArrow=none;startFill=0;startSize=6;endArrow=none;endFill=0;endSize=6;rounded=0;gliffyId=34;exitX=1.0;exitY=0.5;exitPerimeter=0;entryX=0.0;entryY=0.5;entryPerimeter=0;" edge="1" parent="1" source="ZIbTZjHyzcT9zax5rJuE-1" target="ZIbTZjHyzcT9zax5rJuE-5">
          <mxGeometry width="100" height="100" relative="1" as="geometry">
            <Array as="points">
              <mxPoint x="690" y="366" />
              <mxPoint x="750" y="367" />
            </Array>
          </mxGeometry>
        </mxCell>
        <mxCell id="ZIbTZjHyzcT9zax5rJuE-7" value="&lt;div style=&#39;width: 133.0px;height:auto;word-break: break-word;&#39;&gt;&lt;div align=&quot;center&quot;&gt;&lt;span style=&quot;font-size: 12px; font-family: Arial; white-space: pre-wrap; font-weight: bold; text-decoration: none; line-height: 14px; color: rgb(0, 0, 0);&quot;&gt;OptionList = ObjList&lt;/span&gt;&lt;/div&gt;&lt;/div&gt;" style="shape=rect;shadow=1;strokeWidth=2;fillColor=#ffffff;strokeColor=#000000;opacity=100.0;html=1;nl2Br=0;verticalAlign=middle;align=center;spacingLeft=2.0;spacingRight=0;whiteSpace=wrap;gliffyId=32;" vertex="1" parent="1">
          <mxGeometry x="750" y="1164.3953857421875" width="140" height="35" as="geometry" />
        </mxCell>
        <mxCell id="ZIbTZjHyzcT9zax5rJuE-8" style="shape=rect;fillColor=none;strokeColor=none;shadow=1;strokeWidth=2;opacity=100.0;gliffyId=23;" vertex="1" parent="1">
          <mxGeometry x="980" y="529.3953857421875" width="220" height="446" as="geometry" />
        </mxCell>
        <mxCell id="ZIbTZjHyzcT9zax5rJuE-9" value="&lt;div style=&#39;width: 217.0px;height:auto;word-break: break-word;&#39;&gt;&lt;div align=&quot;center&quot;&gt;&lt;span style=&quot;font-size: 12px; font-family: Arial; white-space: pre-wrap; font-weight: bold; text-decoration: none; line-height: 14px; color: rgb(0, 0, 0);&quot;&gt;TitleManager = MonoBehaviour &lt;/span&gt;&lt;/div&gt;&lt;div align=&quot;center&quot;&gt;&lt;span style=&quot;font-size: 12px; font-family: Arial; white-space: pre-wrap; font-weight: bold; text-decoration: none; line-height: 14px; color: rgb(0, 0, 0);&quot;&gt;시작화면 전체를 관리하는 컴포넌트&lt;/span&gt;&lt;/div&gt;&lt;/div&gt;" style="shape=rect;shadow=1;strokeWidth=2;fillColor=#ffffff;strokeColor=#000000;opacity=100.0;html=1;nl2Br=0;verticalAlign=top;align=center;spacingLeft=0.0;spacingRight=0;spacingTop=-5.0;spacingBottom=2;whiteSpace=wrap;gliffyId=24;" vertex="1" parent="ZIbTZjHyzcT9zax5rJuE-8">
          <mxGeometry width="220" height="32" as="geometry" />
        </mxCell>
        <mxCell id="ZIbTZjHyzcT9zax5rJuE-10" value="&lt;div style=&#39;width: 217.0px;height:auto;word-break: break-word;&#39;&gt;&lt;div align=&quot;left&quot;&gt;&lt;span style=&quot;font-size: 12px; font-family: Arial; white-space: pre-wrap; font-weight: normal; text-decoration: none; line-height: 14px; color: rgb(0, 0, 0);&quot;&gt;titlePos, otherPos = RectTransform &lt;/span&gt;&lt;/div&gt;&lt;div align=&quot;left&quot;&gt;&lt;span style=&quot;font-size: 12px; font-family: Arial; white-space: pre-wrap; font-weight: normal; text-decoration: none; line-height: 14px; color: rgb(0, 0, 0);&quot;&gt;각각의 화면을 표시하기 위한 위치 &lt;/span&gt;&lt;/div&gt;&lt;div align=&quot;left&quot;&gt;&lt;span style=&quot;font-size: 12px; font-family: Arial; white-space: pre-wrap; font-weight: normal; text-decoration: none; line-height: 14px; color: rgb(0, 0, 0);&quot;&gt; &lt;/span&gt;&lt;/div&gt;&lt;div align=&quot;left&quot;&gt;&lt;span style=&quot;font-size: 12px; font-family: Arial; white-space: pre-wrap; font-weight: normal; text-decoration: none; line-height: 14px; color: rgb(0, 0, 0);&quot;&gt;titleList, optionList, galleryList = ObjList &lt;/span&gt;&lt;/div&gt;&lt;div align=&quot;left&quot;&gt;&lt;span style=&quot;font-size: 12px; font-family: Arial; white-space: pre-wrap; font-weight: normal; text-decoration: none; line-height: 14px; color: rgb(0, 0, 0);&quot;&gt;각각의 화면 리스트 &lt;/span&gt;&lt;/div&gt;&lt;div align=&quot;left&quot;&gt;&lt;span style=&quot;font-size: 12px; font-family: Arial; white-space: pre-wrap; font-weight: normal; text-decoration: none; line-height: 14px; color: rgb(0, 0, 0);&quot;&gt; &lt;/span&gt;&lt;/div&gt;&lt;div align=&quot;left&quot;&gt;&lt;span style=&quot;font-size: 12px; font-family: Arial; white-space: pre-wrap; font-weight: normal; text-decoration: none; line-height: 14px; color: rgb(0, 0, 0);&quot;&gt;manager = private static this &lt;/span&gt;&lt;/div&gt;&lt;div align=&quot;left&quot;&gt;&lt;span style=&quot;font-size: 12px; font-family: Arial; white-space: pre-wrap; font-weight: normal; text-decoration: none; line-height: 14px; color: rgb(0, 0, 0);&quot;&gt;자기 자신 컴포넌트를 전역으로 사용 &lt;/span&gt;&lt;/div&gt;&lt;div align=&quot;left&quot;&gt;&lt;span style=&quot;font-size: 12px; font-family: Arial; white-space: pre-wrap; font-weight: normal; text-decoration: none; line-height: 14px; color: rgb(0, 0, 0);&quot;&gt; &lt;/span&gt;&lt;/div&gt;&lt;div align=&quot;left&quot;&gt;&lt;span style=&quot;font-size: 12px; font-family: Arial; white-space: pre-wrap; font-weight: normal; text-decoration: none; line-height: 14px; color: rgb(0, 0, 0);&quot;&gt;title = Title  &lt;/span&gt;&lt;/div&gt;&lt;div align=&quot;left&quot;&gt;&lt;span style=&quot;font-size: 12px; font-family: Arial; white-space: pre-wrap; font-weight: normal; text-decoration: none; line-height: 14px; color: rgb(0, 0, 0);&quot;&gt;현재 타이틀 화면 &lt;/span&gt;&lt;/div&gt;&lt;div align=&quot;left&quot;&gt;&lt;span style=&quot;font-size: 12px; font-family: Arial; white-space: pre-wrap; font-weight: normal; text-decoration: none; line-height: 14px; color: rgb(0, 0, 0);&quot;&gt;option = Option  &lt;/span&gt;&lt;/div&gt;&lt;div align=&quot;left&quot;&gt;&lt;span style=&quot;font-size: 12px; font-family: Arial; white-space: pre-wrap; font-weight: normal; text-decoration: none; line-height: 14px; color: rgb(0, 0, 0);&quot;&gt;현재 옵션 화면 &lt;/span&gt;&lt;/div&gt;&lt;div align=&quot;left&quot;&gt;&lt;span style=&quot;font-size: 12px; font-family: Arial; white-space: pre-wrap; font-weight: normal; text-decoration: none; line-height: 14px; color: rgb(0, 0, 0);&quot;&gt;gallery = Gallery &lt;/span&gt;&lt;/div&gt;&lt;div align=&quot;left&quot;&gt;&lt;span style=&quot;font-size: 12px; font-family: Arial; white-space: pre-wrap; font-weight: normal; text-decoration: none; line-height: 14px; color: rgb(0, 0, 0);&quot;&gt;현재 도감 화면 &lt;/span&gt;&lt;/div&gt;&lt;div align=&quot;left&quot;&gt;&lt;span style=&quot;font-size: 12px; font-family: Arial; white-space: pre-wrap; font-weight: normal; text-decoration: none; line-height: 14px; color: rgb(0, 0, 0);&quot;&gt; &lt;/span&gt;&lt;/div&gt;&lt;div align=&quot;left&quot;&gt;&lt;span style=&quot;font-size: 12px; font-family: Arial; white-space: pre-wrap; font-weight: normal; text-decoration: none; line-height: 14px; color: rgb(0, 0, 0);&quot;&gt;usable = public static bool  &lt;/span&gt;&lt;/div&gt;&lt;div align=&quot;left&quot;&gt;&lt;span style=&quot;font-size: 12px; font-family: Arial; white-space: pre-wrap; font-weight: normal; text-decoration: none; line-height: 14px; color: rgb(0, 0, 0);&quot;&gt;사용 가능한지 여부&lt;/span&gt;&lt;/div&gt;&lt;/div&gt;" style="shape=rect;shadow=1;strokeWidth=2;fillColor=#ffffff;strokeColor=#000000;opacity=100.0;html=1;nl2Br=0;verticalAlign=top;align=left;spacingLeft=0.0;spacingRight=0;spacingTop=-5.0;spacingBottom=2;whiteSpace=wrap;gliffyId=26;" vertex="1" parent="ZIbTZjHyzcT9zax5rJuE-8">
          <mxGeometry y="32" width="220" height="256" as="geometry" />
        </mxCell>
        <mxCell id="ZIbTZjHyzcT9zax5rJuE-11" value="&lt;div style=&#39;width: 217.0px;height:auto;word-break: break-word;&#39;&gt;&lt;div align=&quot;left&quot;&gt;&lt;span style=&quot;font-size: 12px; font-family: Arial; white-space: pre-wrap; font-weight: normal; text-decoration: none; line-height: 14px; color: rgb(0, 0, 0);&quot;&gt;Init() = public void &lt;/span&gt;&lt;/div&gt;&lt;div align=&quot;left&quot;&gt;&lt;span style=&quot;font-size: 12px; font-family: Arial; white-space: pre-wrap; font-weight: normal; text-decoration: none; line-height: 14px; color: rgb(0, 0, 0);&quot;&gt;초기화 함수 &lt;/span&gt;&lt;/div&gt;&lt;div align=&quot;left&quot;&gt;&lt;span style=&quot;font-size: 12px; font-family: Arial; white-space: pre-wrap; font-weight: normal; text-decoration: none; line-height: 14px; color: rgb(0, 0, 0);&quot;&gt; &lt;/span&gt;&lt;/div&gt;&lt;div align=&quot;left&quot;&gt;&lt;span style=&quot;font-size: 12px; font-family: Arial; white-space: pre-wrap; font-weight: normal; text-decoration: none; line-height: 14px; color: rgb(0, 0, 0);&quot;&gt;ReturnTitle() = public static void &lt;/span&gt;&lt;/div&gt;&lt;div align=&quot;left&quot;&gt;&lt;span style=&quot;font-size: 12px; font-family: Arial; white-space: pre-wrap; font-weight: normal; text-decoration: none; line-height: 14px; color: rgb(0, 0, 0);&quot;&gt;타이틀화면을 다시 활성화시킴 &lt;/span&gt;&lt;/div&gt;&lt;div align=&quot;left&quot;&gt;&lt;span style=&quot;font-size: 12px; font-family: Arial; white-space: pre-wrap; font-weight: normal; text-decoration: none; line-height: 14px; color: rgb(0, 0, 0);&quot;&gt; &lt;/span&gt;&lt;/div&gt;&lt;div align=&quot;left&quot;&gt;&lt;span style=&quot;font-size: 12px; font-family: Arial; white-space: pre-wrap; font-weight: normal; text-decoration: none; line-height: 14px; color: rgb(0, 0, 0);&quot;&gt;MakeTitle() = public static void &lt;/span&gt;&lt;/div&gt;&lt;div align=&quot;left&quot;&gt;&lt;span style=&quot;font-size: 12px; font-family: Arial; white-space: pre-wrap; font-weight: normal; text-decoration: none; line-height: 14px; color: rgb(0, 0, 0);&quot;&gt;타이틀화면 구성 &lt;/span&gt;&lt;/div&gt;&lt;div align=&quot;left&quot;&gt;&lt;span style=&quot;font-size: 12px; font-family: Arial; white-space: pre-wrap; font-weight: normal; text-decoration: none; line-height: 14px; color: rgb(0, 0, 0);&quot;&gt; &lt;/span&gt;&lt;/div&gt;&lt;div align=&quot;left&quot;&gt;&lt;span style=&quot;font-size: 12px; font-family: Arial; white-space: pre-wrap; font-weight: normal; text-decoration: none; line-height: 14px; color: rgb(0, 0, 0);&quot;&gt;Open(index) = public static void  &lt;/span&gt;&lt;/div&gt;&lt;div align=&quot;left&quot;&gt;&lt;span style=&quot;font-size: 12px; font-family: Arial; white-space: pre-wrap; font-weight: normal; text-decoration: none; line-height: 14px; color: rgb(0, 0, 0);&quot;&gt;타이틀 화면에서 특정 창을 연다&lt;/span&gt;&lt;/div&gt;&lt;/div&gt;" style="shape=rect;shadow=1;strokeWidth=2;fillColor=#ffffff;strokeColor=#000000;opacity=100.0;html=1;nl2Br=0;verticalAlign=top;align=left;spacingLeft=0.0;spacingRight=0;spacingTop=-5.0;spacingBottom=2;whiteSpace=wrap;gliffyId=28;" vertex="1" parent="ZIbTZjHyzcT9zax5rJuE-8">
          <mxGeometry y="288" width="220" height="158" as="geometry" />
        </mxCell>
        <mxCell id="ZIbTZjHyzcT9zax5rJuE-12" style="shape=filledEdge;strokeWidth=2;strokeColor=#000000;fillColor=none;startArrow=none;startFill=0;startSize=6;endArrow=none;endFill=0;endSize=6;rounded=0;gliffyId=22;exitX=1.0;exitY=0.5;exitPerimeter=0;entryX=0.0;entryY=0.5;entryPerimeter=0;" edge="1" parent="1" source="ZIbTZjHyzcT9zax5rJuE-5" target="ZIbTZjHyzcT9zax5rJuE-8">
          <mxGeometry width="100" height="100" relative="1" as="geometry">
            <Array as="points">
              <mxPoint x="890" y="367" />
              <mxPoint x="980" y="752.3953857421875" />
            </Array>
          </mxGeometry>
        </mxCell>
        <mxCell id="ZIbTZjHyzcT9zax5rJuE-13" style="shape=filledEdge;strokeWidth=2;strokeColor=#000000;fillColor=none;startArrow=none;startFill=0;startSize=6;endArrow=none;endFill=0;endSize=6;rounded=0;gliffyId=21;exitX=1.0;exitY=0.5;exitPerimeter=0;entryX=0.0;entryY=0.5;entryPerimeter=0;" edge="1" parent="1" source="ZIbTZjHyzcT9zax5rJuE-7" target="ZIbTZjHyzcT9zax5rJuE-8">
          <mxGeometry width="100" height="100" relative="1" as="geometry">
            <Array as="points">
              <mxPoint x="890" y="1181.8953857421875" />
              <mxPoint x="980" y="752.3953857421875" />
            </Array>
          </mxGeometry>
        </mxCell>
        <mxCell id="ZIbTZjHyzcT9zax5rJuE-14" style="shape=filledEdge;strokeWidth=2;strokeColor=#000000;fillColor=none;startArrow=none;startFill=0;startSize=6;endArrow=none;endFill=0;endSize=6;rounded=0;gliffyId=19;edgeStyle=orthogonalEdgeStyle;" edge="1" parent="1">
          <mxGeometry width="100" height="100" relative="1" as="geometry">
            <mxPoint x="923" y="372.3953857421875" as="sourcePoint" />
            <mxPoint x="923" y="372.3953857421875" as="targetPoint" />
          </mxGeometry>
        </mxCell>
        <mxCell id="ZIbTZjHyzcT9zax5rJuE-15" style="shape=rect;fillColor=none;strokeColor=none;shadow=1;strokeWidth=2;opacity=100.0;gliffyId=12;" vertex="1" parent="1">
          <mxGeometry x="370" y="866.8953857421875" width="320" height="628" as="geometry" />
        </mxCell>
        <mxCell id="ZIbTZjHyzcT9zax5rJuE-16" value="&lt;div style=&#39;width: 317.0px;height:auto;word-break: break-word;&#39;&gt;&lt;div align=&quot;center&quot;&gt;&lt;span style=&quot;font-size: 12px; font-family: Arial; white-space: pre-wrap; font-weight: bold; text-decoration: none; line-height: 14px; color: rgb(0, 0, 0);&quot;&gt;Option = public abstract class : MonoBehaviour &lt;/span&gt;&lt;/div&gt;&lt;div align=&quot;center&quot;&gt;&lt;span style=&quot;font-size: 12px; font-family: Arial; white-space: pre-wrap; font-weight: bold; text-decoration: none; line-height: 14px; color: rgb(0, 0, 0);&quot;&gt;옵션화면을 구성하는 추상 클래스&lt;/span&gt;&lt;/div&gt;&lt;/div&gt;" style="shape=rect;shadow=1;strokeWidth=2;fillColor=#ffffff;strokeColor=#000000;opacity=100.0;html=1;nl2Br=0;verticalAlign=top;align=center;spacingLeft=0.0;spacingRight=0;spacingTop=-5.0;spacingBottom=2;whiteSpace=wrap;gliffyId=13;" vertex="1" parent="ZIbTZjHyzcT9zax5rJuE-15">
          <mxGeometry width="320" height="32" as="geometry" />
        </mxCell>
        <mxCell id="ZIbTZjHyzcT9zax5rJuE-17" value="&lt;div style=&#39;width: 317.0px;height:auto;word-break: break-word;&#39;&gt;&lt;div align=&quot;left&quot;&gt;&lt;span style=&quot;font-size: 12px; font-family: Arial; white-space: pre-wrap; font-weight: normal; text-decoration: none; line-height: 14px; color: rgb(0, 0, 0);&quot;&gt;dialog = GameObject &lt;/span&gt;&lt;/div&gt;&lt;div align=&quot;left&quot;&gt;&lt;span style=&quot;font-size: 12px; font-family: Arial; white-space: pre-wrap; font-weight: normal; text-decoration: none; line-height: 14px; color: rgb(0, 0, 0);&quot;&gt;확인창 &lt;/span&gt;&lt;/div&gt;&lt;div align=&quot;left&quot;&gt;&lt;span style=&quot;font-size: 12px; font-family: Arial; white-space: pre-wrap; font-weight: normal; text-decoration: none; line-height: 14px; color: rgb(0, 0, 0);&quot;&gt; &lt;/span&gt;&lt;/div&gt;&lt;div align=&quot;left&quot;&gt;&lt;span style=&quot;font-size: 12px; font-family: Arial; white-space: pre-wrap; font-weight: normal; text-decoration: none; line-height: 14px; color: rgb(0, 0, 0);&quot;&gt;titlePreset = TitlePreset  &lt;/span&gt;&lt;/div&gt;&lt;div align=&quot;left&quot;&gt;&lt;span style=&quot;font-size: 12px; font-family: Arial; white-space: pre-wrap; font-weight: normal; text-decoration: none; line-height: 14px; color: rgb(0, 0, 0);&quot;&gt;UI 프리셋 리스트 &lt;/span&gt;&lt;/div&gt;&lt;div align=&quot;left&quot;&gt;&lt;span style=&quot;font-size: 12px; font-family: Arial; white-space: pre-wrap; font-weight: normal; text-decoration: none; line-height: 14px; color: rgb(0, 0, 0);&quot;&gt; &lt;/span&gt;&lt;/div&gt;&lt;div align=&quot;left&quot;&gt;&lt;span style=&quot;font-size: 12px; font-family: Arial; white-space: pre-wrap; font-weight: normal; text-decoration: none; line-height: 14px; color: rgb(0, 0, 0);&quot;&gt;display = Display  &lt;/span&gt;&lt;/div&gt;&lt;div align=&quot;left&quot;&gt;&lt;span style=&quot;font-size: 12px; font-family: Arial; white-space: pre-wrap; font-weight: normal; text-decoration: none; line-height: 14px; color: rgb(0, 0, 0);&quot;&gt;화면 설정값 &lt;/span&gt;&lt;/div&gt;&lt;div align=&quot;left&quot;&gt;&lt;span style=&quot;font-size: 12px; font-family: Arial; white-space: pre-wrap; font-weight: normal; text-decoration: none; line-height: 14px; color: rgb(0, 0, 0);&quot;&gt; &lt;/span&gt;&lt;/div&gt;&lt;div align=&quot;left&quot;&gt;&lt;span style=&quot;font-size: 12px; font-family: Arial; white-space: pre-wrap; font-weight: normal; text-decoration: none; line-height: 14px; color: rgb(0, 0, 0);&quot;&gt;language = Language  &lt;/span&gt;&lt;/div&gt;&lt;div align=&quot;left&quot;&gt;&lt;span style=&quot;font-size: 12px; font-family: Arial; white-space: pre-wrap; font-weight: normal; text-decoration: none; line-height: 14px; color: rgb(0, 0, 0);&quot;&gt;languageText = TextManager  &lt;/span&gt;&lt;/div&gt;&lt;div align=&quot;left&quot;&gt;&lt;span style=&quot;font-size: 12px; font-family: Arial; white-space: pre-wrap; font-weight: normal; text-decoration: none; line-height: 14px; color: rgb(0, 0, 0);&quot;&gt;언어 설정 &lt;/span&gt;&lt;/div&gt;&lt;div align=&quot;left&quot;&gt;&lt;span style=&quot;font-size: 12px; font-family: Arial; white-space: pre-wrap; font-weight: normal; text-decoration: none; line-height: 14px; color: rgb(0, 0, 0);&quot;&gt; &lt;/span&gt;&lt;/div&gt;&lt;div align=&quot;left&quot;&gt;&lt;span style=&quot;font-size: 12px; font-family: Arial; white-space: pre-wrap; font-weight: normal; text-decoration: none; line-height: 14px; color: rgb(0, 0, 0);&quot;&gt;volume = Volume  &lt;/span&gt;&lt;/div&gt;&lt;div align=&quot;left&quot;&gt;&lt;span style=&quot;font-size: 12px; font-family: Arial; white-space: pre-wrap; font-weight: normal; text-decoration: none; line-height: 14px; color: rgb(0, 0, 0);&quot;&gt;소리 볼륨 설정 &lt;/span&gt;&lt;/div&gt;&lt;div align=&quot;left&quot;&gt;&lt;span style=&quot;font-size: 12px; font-family: Arial; white-space: pre-wrap; font-weight: normal; text-decoration: none; line-height: 14px; color: rgb(0, 0, 0);&quot;&gt; &lt;/span&gt;&lt;/div&gt;&lt;div align=&quot;left&quot;&gt;&lt;span style=&quot;font-size: 12px; font-family: Arial; white-space: pre-wrap; font-weight: normal; text-decoration: none; line-height: 14px; color: rgb(0, 0, 0);&quot;&gt;control = ControlType  &lt;/span&gt;&lt;/div&gt;&lt;div align=&quot;left&quot;&gt;&lt;span style=&quot;font-size: 12px; font-family: Arial; white-space: pre-wrap; font-weight: normal; text-decoration: none; line-height: 14px; color: rgb(0, 0, 0);&quot;&gt;컨트롤 설정 &lt;/span&gt;&lt;/div&gt;&lt;div align=&quot;left&quot;&gt;&lt;span style=&quot;font-size: 12px; font-family: Arial; white-space: pre-wrap; font-weight: normal; text-decoration: none; line-height: 14px; color: rgb(0, 0, 0);&quot;&gt; &lt;/span&gt;&lt;/div&gt;&lt;div align=&quot;left&quot;&gt;&lt;span style=&quot;font-size: 12px; font-family: Arial; white-space: pre-wrap; font-weight: normal; text-decoration: none; line-height: 14px; color: rgb(0, 0, 0);&quot;&gt;controlType, titleTheme, raitio, languages = Dropdown &lt;/span&gt;&lt;/div&gt;&lt;div align=&quot;left&quot;&gt;&lt;span style=&quot;font-size: 12px; font-family: Arial; white-space: pre-wrap; font-weight: normal; text-decoration: none; line-height: 14px; color: rgb(0, 0, 0);&quot;&gt;옵션 기본 드롭다운 목록 &lt;/span&gt;&lt;/div&gt;&lt;div align=&quot;left&quot;&gt;&lt;span style=&quot;font-size: 12px; font-family: Arial; white-space: pre-wrap; font-weight: normal; text-decoration: none; line-height: 14px; color: rgb(0, 0, 0);&quot;&gt; &lt;/span&gt;&lt;/div&gt;&lt;div align=&quot;left&quot;&gt;&lt;span style=&quot;font-size: 12px; font-family: Arial; white-space: pre-wrap; font-weight: normal; text-decoration: none; line-height: 14px; color: rgb(0, 0, 0);&quot;&gt;fullScreen = Toggle  &lt;/span&gt;&lt;/div&gt;&lt;div align=&quot;left&quot;&gt;&lt;span style=&quot;font-size: 12px; font-family: Arial; white-space: pre-wrap; font-weight: normal; text-decoration: none; line-height: 14px; color: rgb(0, 0, 0);&quot;&gt;옵션 기본 체크박스 목록 &lt;/span&gt;&lt;/div&gt;&lt;div align=&quot;left&quot;&gt;&lt;span style=&quot;font-size: 12px; font-family: Arial; white-space: pre-wrap; font-weight: normal; text-decoration: none; line-height: 14px; color: rgb(0, 0, 0);&quot;&gt; &lt;/span&gt;&lt;/div&gt;&lt;div align=&quot;left&quot;&gt;&lt;span style=&quot;font-size: 12px; font-family: Arial; white-space: pre-wrap; font-weight: normal; text-decoration: none; line-height: 14px; color: rgb(0, 0, 0);&quot;&gt;bgmVol = Slider  &lt;/span&gt;&lt;/div&gt;&lt;div align=&quot;left&quot;&gt;&lt;span style=&quot;font-size: 12px; font-family: Arial; white-space: pre-wrap; font-weight: normal; text-decoration: none; line-height: 14px; color: rgb(0, 0, 0);&quot;&gt;sfxVol = Slider  &lt;/span&gt;&lt;/div&gt;&lt;div align=&quot;left&quot;&gt;&lt;span style=&quot;font-size: 12px; font-family: Arial; white-space: pre-wrap; font-weight: normal; text-decoration: none; line-height: 14px; color: rgb(0, 0, 0);&quot;&gt;볼륨 설정 슬라이더 &lt;/span&gt;&lt;/div&gt;&lt;/div&gt;" style="shape=rect;shadow=1;strokeWidth=2;fillColor=#ffffff;strokeColor=#000000;opacity=100.0;html=1;nl2Br=0;verticalAlign=top;align=left;spacingLeft=0.0;spacingRight=0;spacingTop=-5.0;spacingBottom=2;whiteSpace=wrap;gliffyId=15;" vertex="1" parent="ZIbTZjHyzcT9zax5rJuE-15">
          <mxGeometry y="32" width="320" height="396" as="geometry" />
        </mxCell>
        <mxCell id="ZIbTZjHyzcT9zax5rJuE-18" value="&lt;div style=&#39;width: 317.0px;height:auto;word-break: break-word;&#39;&gt;&lt;div align=&quot;left&quot;&gt;&lt;span style=&quot;font-size: 12px; font-family: Arial; white-space: pre-wrap; font-weight: normal; text-decoration: none; line-height: 14px; color: rgb(0, 0, 0);&quot;&gt;Init(RectTransform) = public virtual void &lt;/span&gt;&lt;/div&gt;&lt;div align=&quot;left&quot;&gt;&lt;span style=&quot;font-size: 12px; font-family: Arial; white-space: pre-wrap; font-weight: normal; text-decoration: none; line-height: 14px; color: rgb(0, 0, 0);&quot;&gt;초기화 함수, 이미 저장되어있는 각 옵션 정보 불러오기 &lt;/span&gt;&lt;/div&gt;&lt;div align=&quot;left&quot;&gt;&lt;span style=&quot;font-size: 12px; font-family: Arial; white-space: pre-wrap; font-weight: normal; text-decoration: none; line-height: 14px; color: rgb(0, 0, 0);&quot;&gt; &lt;/span&gt;&lt;/div&gt;&lt;div align=&quot;left&quot;&gt;&lt;span style=&quot;font-size: 12px; font-family: Arial; white-space: pre-wrap; font-weight: normal; text-decoration: none; line-height: 14px; color: rgb(0, 0, 0);&quot;&gt;Exit() = public virtual void &lt;/span&gt;&lt;/div&gt;&lt;div align=&quot;left&quot;&gt;&lt;span style=&quot;font-size: 12px; font-family: Arial; white-space: pre-wrap; font-weight: normal; text-decoration: none; line-height: 14px; color: rgb(0, 0, 0);&quot;&gt;화면 비활성화 &lt;/span&gt;&lt;/div&gt;&lt;div align=&quot;left&quot;&gt;&lt;span style=&quot;font-size: 12px; font-family: Arial; white-space: pre-wrap; font-weight: normal; text-decoration: none; line-height: 14px; color: rgb(0, 0, 0);&quot;&gt; &lt;/span&gt;&lt;/div&gt;&lt;div align=&quot;left&quot;&gt;&lt;span style=&quot;font-size: 12px; font-family: Arial; white-space: pre-wrap; font-weight: normal; text-decoration: none; line-height: 14px; color: rgb(0, 0, 0);&quot;&gt;Apply() = public virtual void &lt;/span&gt;&lt;/div&gt;&lt;div align=&quot;left&quot;&gt;&lt;span style=&quot;font-size: 12px; font-family: Arial; white-space: pre-wrap; font-weight: normal; text-decoration: none; line-height: 14px; color: rgb(0, 0, 0);&quot;&gt;옵션 적용 &lt;/span&gt;&lt;/div&gt;&lt;div align=&quot;left&quot;&gt;&lt;span style=&quot;font-size: 12px; font-family: Arial; white-space: pre-wrap; font-weight: normal; text-decoration: none; line-height: 14px; color: rgb(0, 0, 0);&quot;&gt; &lt;/span&gt;&lt;/div&gt;&lt;div align=&quot;left&quot;&gt;&lt;span style=&quot;font-size: 12px; font-family: Arial; white-space: pre-wrap; font-weight: normal; text-decoration: none; line-height: 14px; color: rgb(0, 0, 0);&quot;&gt;SetLanguageFlag() = public virtual void  &lt;/span&gt;&lt;/div&gt;&lt;div align=&quot;left&quot;&gt;&lt;span style=&quot;font-size: 12px; font-family: Arial; white-space: pre-wrap; font-weight: normal; text-decoration: none; line-height: 14px; color: rgb(0, 0, 0);&quot;&gt;언어 옵션을 변경하였을 시 표시되는 국가 이미지 변경 &lt;/span&gt;&lt;/div&gt;&lt;div align=&quot;left&quot;&gt;&lt;span style=&quot;font-size: 12px; font-family: Arial; white-space: pre-wrap; font-weight: normal; text-decoration: none; line-height: 14px; color: rgb(0, 0, 0);&quot;&gt; &lt;/span&gt;&lt;/div&gt;&lt;div align=&quot;left&quot;&gt;&lt;span style=&quot;font-size: 12px; font-family: Arial; white-space: pre-wrap; font-weight: normal; text-decoration: none; line-height: 14px; color: rgb(0, 0, 0);&quot;&gt;SetControlImage() = public virtual void  &lt;/span&gt;&lt;/div&gt;&lt;div align=&quot;left&quot;&gt;&lt;span style=&quot;font-size: 12px; font-family: Arial; white-space: pre-wrap; font-weight: normal; text-decoration: none; line-height: 14px; color: rgb(0, 0, 0);&quot;&gt;조작타입 이미지 변경&lt;/span&gt;&lt;/div&gt;&lt;/div&gt;" style="shape=rect;shadow=1;strokeWidth=2;fillColor=#ffffff;strokeColor=#000000;opacity=100.0;html=1;nl2Br=0;verticalAlign=top;align=left;spacingLeft=0.0;spacingRight=0;spacingTop=-5.0;spacingBottom=2;whiteSpace=wrap;gliffyId=17;" vertex="1" parent="ZIbTZjHyzcT9zax5rJuE-15">
          <mxGeometry y="428" width="320" height="200" as="geometry" />
        </mxCell>
        <mxCell id="ZIbTZjHyzcT9zax5rJuE-19" style="shape=filledEdge;strokeWidth=2;strokeColor=#000000;fillColor=none;startArrow=none;startFill=0;startSize=6;endArrow=none;endFill=0;endSize=6;rounded=0;gliffyId=11;exitX=0.0;exitY=0.5;exitPerimeter=0;entryX=1.0;entryY=0.5;entryPerimeter=0;" edge="1" parent="1" source="ZIbTZjHyzcT9zax5rJuE-7" target="ZIbTZjHyzcT9zax5rJuE-15">
          <mxGeometry width="100" height="100" relative="1" as="geometry">
            <Array as="points">
              <mxPoint x="750" y="1181.8953857421875" />
              <mxPoint x="690" y="1180.8953857421875" />
            </Array>
          </mxGeometry>
        </mxCell>
        <mxCell id="ZIbTZjHyzcT9zax5rJuE-20" style="shape=filledEdge;strokeWidth=2;strokeColor=#000000;fillColor=none;startArrow=none;startFill=0;startSize=6;endArrow=none;endFill=0;endSize=6;rounded=0;gliffyId=1;edgeStyle=orthogonalEdgeStyle;" edge="1" parent="1">
          <mxGeometry width="100" height="100" relative="1" as="geometry">
            <mxPoint x="744" y="464.8953857421875" as="sourcePoint" />
            <mxPoint x="744" y="464.8953857421875" as="targetPoint" />
          </mxGeometry>
        </mxCell>
        <mxCell id="ZIbTZjHyzcT9zax5rJuE-21" style="shape=folder;fontStyle=1;spacingTop=10;tabWidth=40;tabHeight=14;tabPosition=left;shadow=1;strokeWidth=2;fillColor=#FFFFFF;strokeColor=#000000;opacity=100.0;gliffyId=273;" vertex="1" parent="1">
          <mxGeometry x="4340" y="418.1958312988281" width="140" height="75" as="geometry" />
        </mxCell>
        <mxCell id="ZIbTZjHyzcT9zax5rJuE-22" style="shape=rect;shadow=1;strokeWidth=2;fillColor=#FFFFFF;strokeColor=#000000;opacity=100.0;gliffyId=274;" vertex="1" parent="ZIbTZjHyzcT9zax5rJuE-21">
          <mxGeometry width="56" height="10" as="geometry" />
        </mxCell>
        <mxCell id="ZIbTZjHyzcT9zax5rJuE-23" value="&lt;div style=&#39;width: 137.0px;height:auto;word-break: break-word;&#39;&gt;&lt;div align=&quot;center&quot;&gt;&lt;span style=&quot;font-size: 12px; font-family: Arial; white-space: pre-wrap; font-weight: bold; text-decoration: none; line-height: 14px; color: rgb(0, 0, 0);&quot;&gt;유니티 물리적 파일구조 &lt;/span&gt;&lt;/div&gt;&lt;div align=&quot;center&quot;&gt;&lt;span style=&quot;font-size: 12px; font-family: Arial; white-space: pre-wrap; font-weight: bold; text-decoration: none; line-height: 14px; color: rgb(0, 0, 0);&quot;&gt;Asset&lt;/span&gt;&lt;/div&gt;&lt;/div&gt;" style="shape=rect;shadow=1;strokeWidth=2;fillColor=#FFFFFF;strokeColor=#000000;opacity=100.0;html=1;nl2Br=0;verticalAlign=middle;align=center;spacingLeft=0.0;spacingRight=0;whiteSpace=wrap;gliffyId=275;" vertex="1" parent="ZIbTZjHyzcT9zax5rJuE-21">
          <mxGeometry y="10" width="140" height="65" as="geometry" />
        </mxCell>
        <mxCell id="ZIbTZjHyzcT9zax5rJuE-24" style="shape=folder;fontStyle=1;spacingTop=10;tabWidth=40;tabHeight=14;tabPosition=left;shadow=1;strokeWidth=2;fillColor=#FFFFFF;strokeColor=#000000;opacity=100.0;gliffyId=264;" vertex="1" parent="1">
          <mxGeometry x="4541.19384765625" y="580.0696411132812" width="90" height="50" as="geometry" />
        </mxCell>
        <mxCell id="ZIbTZjHyzcT9zax5rJuE-25" style="shape=rect;shadow=1;strokeWidth=2;fillColor=#FFFFFF;strokeColor=#000000;opacity=100.0;gliffyId=265;" vertex="1" parent="ZIbTZjHyzcT9zax5rJuE-24">
          <mxGeometry width="36" height="10" as="geometry" />
        </mxCell>
        <mxCell id="ZIbTZjHyzcT9zax5rJuE-26" value="&lt;div style=&#39;width: 87.0px;height:auto;word-break: break-word;&#39;&gt;&lt;div align=&quot;center&quot;&gt;&lt;span style=&quot;font-size: 12px; font-family: Arial; white-space: pre-wrap; font-weight: bold; text-decoration: none; line-height: 14px; color: rgb(0, 0, 0);&quot;&gt;Scripts&lt;/span&gt;&lt;/div&gt;&lt;/div&gt;" style="shape=rect;shadow=1;strokeWidth=2;fillColor=#FFFFFF;strokeColor=#000000;opacity=100.0;html=1;nl2Br=0;verticalAlign=middle;align=center;spacingLeft=0.0;spacingRight=0;whiteSpace=wrap;gliffyId=266;" vertex="1" parent="ZIbTZjHyzcT9zax5rJuE-24">
          <mxGeometry y="10" width="90" height="40" as="geometry" />
        </mxCell>
        <mxCell id="ZIbTZjHyzcT9zax5rJuE-27" style="shape=filledEdge;strokeWidth=2;strokeColor=#000000;fillColor=none;startArrow=none;startFill=0;startSize=6;endArrow=none;endFill=0;endSize=6;rounded=0;gliffyId=263;exitX=0.0;exitY=0.5;exitPerimeter=0;entryX=1.0;entryY=0.5;entryPerimeter=0;" edge="1" parent="1" source="ZIbTZjHyzcT9zax5rJuE-24" target="ZIbTZjHyzcT9zax5rJuE-21">
          <mxGeometry width="100" height="100" relative="1" as="geometry">
            <Array as="points">
              <mxPoint x="4541.19384765625" y="605.0696411132812" />
              <mxPoint x="4480" y="455.69586181640625" />
            </Array>
          </mxGeometry>
        </mxCell>
        <mxCell id="ZIbTZjHyzcT9zax5rJuE-28" style="shape=folder;fontStyle=1;spacingTop=10;tabWidth=40;tabHeight=14;tabPosition=left;shadow=1;strokeWidth=2;fillColor=#FFFFFF;strokeColor=#000000;opacity=100.0;gliffyId=240;" vertex="1" parent="1">
          <mxGeometry x="4686.4873046875" y="528.4363403320312" width="90" height="50" as="geometry" />
        </mxCell>
        <mxCell id="ZIbTZjHyzcT9zax5rJuE-29" style="shape=rect;shadow=1;strokeWidth=2;fillColor=#FFFFFF;strokeColor=#000000;opacity=100.0;gliffyId=241;" vertex="1" parent="ZIbTZjHyzcT9zax5rJuE-28">
          <mxGeometry width="36" height="10" as="geometry" />
        </mxCell>
        <mxCell id="ZIbTZjHyzcT9zax5rJuE-30" value="&lt;div style=&#39;width: 87.0px;height:auto;word-break: break-word;&#39;&gt;&lt;div align=&quot;center&quot;&gt;&lt;span style=&quot;font-size: 12px; font-family: Arial; white-space: pre-wrap; font-weight: bold; text-decoration: none; line-height: 14px; color: rgb(0, 0, 0);&quot;&gt;Format&lt;/span&gt;&lt;/div&gt;&lt;/div&gt;" style="shape=rect;shadow=1;strokeWidth=2;fillColor=#FFFFFF;strokeColor=#000000;opacity=100.0;html=1;nl2Br=0;verticalAlign=middle;align=center;spacingLeft=0.0;spacingRight=0;whiteSpace=wrap;gliffyId=242;" vertex="1" parent="ZIbTZjHyzcT9zax5rJuE-28">
          <mxGeometry y="10" width="90" height="40" as="geometry" />
        </mxCell>
        <mxCell id="ZIbTZjHyzcT9zax5rJuE-31" style="shape=filledEdge;strokeWidth=2;strokeColor=#000000;fillColor=none;startArrow=none;startFill=0;startSize=6;endArrow=none;endFill=0;endSize=6;rounded=0;gliffyId=239;exitX=0.0;exitY=0.5;exitPerimeter=0;entryX=1.0;entryY=0.5;entryPerimeter=0;" edge="1" parent="1" source="ZIbTZjHyzcT9zax5rJuE-28" target="ZIbTZjHyzcT9zax5rJuE-24">
          <mxGeometry width="100" height="100" relative="1" as="geometry">
            <Array as="points">
              <mxPoint x="4686.4873046875" y="553.4364013671875" />
              <mxPoint x="4631.193359375" y="605.0697021484375" />
            </Array>
          </mxGeometry>
        </mxCell>
        <mxCell id="ZIbTZjHyzcT9zax5rJuE-32" value="&lt;div style=&#39;width: 133.5px;height:auto;word-break: break-word;&#39;&gt;&lt;div align=&quot;center&quot;&gt;&lt;span style=&quot;font-size: 12px; font-family: Arial; white-space: pre-wrap; font-weight: bold; text-decoration: none; line-height: 14px; color: rgb(0, 0, 0);&quot;&gt;TitleData.cs &lt;/span&gt;&lt;/div&gt;&lt;div align=&quot;center&quot;&gt;&lt;span style=&quot;font-size: 12px; font-family: Arial; white-space: pre-wrap; font-weight: bold; text-decoration: none; line-height: 14px; color: rgb(0, 0, 0);&quot;&gt;TitlePreset.cs &lt;/span&gt;&lt;/div&gt;&lt;div align=&quot;center&quot;&gt;&lt;span style=&quot;font-size: 12px; font-family: Arial; white-space: pre-wrap; font-weight: bold; text-decoration: none; line-height: 14px; color: rgb(0, 0, 0);&quot;&gt;Raitio.cs &lt;/span&gt;&lt;/div&gt;&lt;div align=&quot;center&quot;&gt;&lt;span style=&quot;font-size: 12px; font-family: Arial; white-space: pre-wrap; font-weight: bold; text-decoration: none; line-height: 14px; color: rgb(0, 0, 0);&quot;&gt;Display.cs &lt;/span&gt;&lt;/div&gt;&lt;div align=&quot;center&quot;&gt;&lt;span style=&quot;font-size: 12px; font-family: Arial; white-space: pre-wrap; font-weight: bold; text-decoration: none; line-height: 14px; color: rgb(0, 0, 0);&quot;&gt;Volume.cs &lt;/span&gt;&lt;/div&gt;&lt;div align=&quot;center&quot;&gt;&lt;span style=&quot;font-size: 12px; font-family: Arial; white-space: pre-wrap; font-weight: bold; text-decoration: none; line-height: 14px; color: rgb(0, 0, 0);&quot;&gt;ControlType.cs &lt;/span&gt;&lt;/div&gt;&lt;div align=&quot;center&quot;&gt;&lt;span style=&quot;font-size: 12px; font-family: Arial; white-space: pre-wrap; font-weight: bold; text-decoration: none; line-height: 14px; color: rgb(0, 0, 0);&quot;&gt;Control.cs &lt;/span&gt;&lt;/div&gt;&lt;div align=&quot;center&quot;&gt;&lt;span style=&quot;font-size: 12px; font-family: Arial; white-space: pre-wrap; font-weight: bold; text-decoration: none; line-height: 14px; color: rgb(0, 0, 0);&quot;&gt;SettingsToJson.cs &lt;/span&gt;&lt;/div&gt;&lt;div align=&quot;center&quot;&gt;&lt;span style=&quot;font-size: 12px; font-family: Arial; white-space: pre-wrap; font-weight: bold; text-decoration: none; line-height: 14px; color: rgb(0, 0, 0);&quot;&gt;StageSelectData.cs &lt;/span&gt;&lt;/div&gt;&lt;div align=&quot;center&quot;&gt;&lt;span style=&quot;font-size: 12px; font-family: Arial; white-space: pre-wrap; font-weight: bold; text-decoration: none; line-height: 14px; color: rgb(0, 0, 0);&quot;&gt;Language.cs&lt;/span&gt;&lt;/div&gt;&lt;/div&gt;" style="shape=note;size=10;shadow=0;strokeWidth=1;fillColor=#FFFFFF;strokeColor=#000000;opacity=100.0;html=1;nl2Br=0;verticalAlign=middle;align=center;spacingLeft=1.75;spacingRight=0;whiteSpace=wrap;gliffyId=237;" vertex="1" parent="1">
          <mxGeometry x="4807.5908203125" y="470" width="140" height="166.87261962890625" as="geometry" />
        </mxCell>
        <mxCell id="ZIbTZjHyzcT9zax5rJuE-33" style="shape=filledEdge;strokeWidth=2;strokeColor=#000000;fillColor=none;startArrow=none;startFill=0;startSize=6;endArrow=none;endFill=0;endSize=6;rounded=0;gliffyId=236;edgeStyle=orthogonalEdgeStyle;" edge="1" parent="1" source="ZIbTZjHyzcT9zax5rJuE-28" target="ZIbTZjHyzcT9zax5rJuE-32">
          <mxGeometry width="100" height="100" relative="1" as="geometry">
            <Array as="points">
              <mxPoint x="4776.48779296875" y="553.4364013671875" />
              <mxPoint x="4807.5908203125" y="553.4364013671875" />
            </Array>
          </mxGeometry>
        </mxCell>
        <mxCell id="ZIbTZjHyzcT9zax5rJuE-34" style="shape=folder;fontStyle=1;spacingTop=10;tabWidth=40;tabHeight=14;tabPosition=left;shadow=1;strokeWidth=2;fillColor=#FFFFFF;strokeColor=#000000;opacity=100.0;gliffyId=227;" vertex="1" parent="1">
          <mxGeometry x="4541.19384765625" y="395" width="90" height="46.5625" as="geometry" />
        </mxCell>
        <mxCell id="ZIbTZjHyzcT9zax5rJuE-35" style="shape=rect;shadow=1;strokeWidth=2;fillColor=#FFFFFF;strokeColor=#000000;opacity=100.0;gliffyId=228;" vertex="1" parent="ZIbTZjHyzcT9zax5rJuE-34">
          <mxGeometry width="36" height="10" as="geometry" />
        </mxCell>
        <mxCell id="ZIbTZjHyzcT9zax5rJuE-36" value="&lt;div style=&#39;width: 87.0px;height:auto;word-break: break-word;&#39;&gt;&lt;div align=&quot;center&quot;&gt;&lt;span style=&quot;font-size: 12px; font-family: Arial; white-space: pre-wrap; font-weight: bold; text-decoration: none; line-height: 14px; color: rgb(0, 0, 0);&quot;&gt;DataBase&lt;/span&gt;&lt;/div&gt;&lt;/div&gt;" style="shape=rect;shadow=1;strokeWidth=2;fillColor=#FFFFFF;strokeColor=#000000;opacity=100.0;html=1;nl2Br=0;verticalAlign=middle;align=center;spacingLeft=0.0;spacingRight=0;whiteSpace=wrap;gliffyId=229;" vertex="1" parent="ZIbTZjHyzcT9zax5rJuE-34">
          <mxGeometry y="10" width="90" height="36.5625" as="geometry" />
        </mxCell>
        <mxCell id="ZIbTZjHyzcT9zax5rJuE-37" style="shape=filledEdge;strokeWidth=2;strokeColor=#000000;fillColor=none;startArrow=none;startFill=0;startSize=6;endArrow=none;endFill=0;endSize=6;rounded=0;gliffyId=226;exitX=1.0;exitY=0.5;exitPerimeter=0;entryX=0.0;entryY=0.5;entryPerimeter=0;" edge="1" parent="1" source="ZIbTZjHyzcT9zax5rJuE-21" target="ZIbTZjHyzcT9zax5rJuE-34">
          <mxGeometry width="100" height="100" relative="1" as="geometry">
            <Array as="points">
              <mxPoint x="4480" y="455.69586181640625" />
              <mxPoint x="4541.19384765625" y="418.28125" />
            </Array>
          </mxGeometry>
        </mxCell>
        <mxCell id="ZIbTZjHyzcT9zax5rJuE-38" value="&lt;div style=&#39;width: 124.11562px;height:auto;word-break: break-word;&#39;&gt;&lt;div align=&quot;center&quot;&gt;&lt;span style=&quot;font-size: 12px; font-family: Arial; white-space: pre-wrap; font-weight: bold; text-decoration: none; line-height: 14px; color: rgb(0, 0, 0);&quot;&gt;Option List &lt;/span&gt;&lt;/div&gt;&lt;div align=&quot;center&quot;&gt;&lt;span style=&quot;font-size: 12px; font-family: Arial; white-space: pre-wrap; font-weight: bold; text-decoration: none; line-height: 14px; color: rgb(0, 0, 0);&quot;&gt;Title List &lt;/span&gt;&lt;/div&gt;&lt;div align=&quot;center&quot;&gt;&lt;span style=&quot;font-size: 12px; font-family: Arial; white-space: pre-wrap; font-weight: bold; text-decoration: none; line-height: 14px; color: rgb(0, 0, 0);&quot;&gt;Control Type &lt;/span&gt;&lt;/div&gt;&lt;div align=&quot;center&quot;&gt;&lt;span style=&quot;font-size: 12px; font-family: Arial; white-space: pre-wrap; font-weight: bold; text-decoration: none; line-height: 14px; color: rgb(0, 0, 0);&quot;&gt;Display &lt;/span&gt;&lt;/div&gt;&lt;div align=&quot;center&quot;&gt;&lt;span style=&quot;font-size: 12px; font-family: Arial; white-space: pre-wrap; font-weight: bold; text-decoration: none; line-height: 14px; color: rgb(0, 0, 0);&quot;&gt;Title Presets &lt;/span&gt;&lt;/div&gt;&lt;div align=&quot;center&quot;&gt;&lt;span style=&quot;font-size: 12px; font-family: Arial; white-space: pre-wrap; font-weight: bold; text-decoration: none; line-height: 14px; color: rgb(0, 0, 0);&quot;&gt;Volume Setting&lt;/span&gt;&lt;/div&gt;&lt;/div&gt;" style="shape=note;size=10;shadow=0;strokeWidth=1;fillColor=#FFFFFF;strokeColor=#000000;opacity=100.0;html=1;nl2Br=0;verticalAlign=middle;align=center;spacingLeft=1.6296875;spacingRight=0;whiteSpace=wrap;gliffyId=219;" vertex="1" parent="1">
          <mxGeometry x="4817.09521484375" y="130" width="130.375" height="110" as="geometry" />
        </mxCell>
        <mxCell id="ZIbTZjHyzcT9zax5rJuE-39" style="shape=filledEdge;strokeWidth=2;strokeColor=#000000;fillColor=none;startArrow=none;startFill=0;startSize=6;endArrow=none;endFill=0;endSize=6;rounded=0;gliffyId=218;edgeStyle=orthogonalEdgeStyle;" edge="1" parent="1" source="ZIbTZjHyzcT9zax5rJuE-40" target="ZIbTZjHyzcT9zax5rJuE-38">
          <mxGeometry width="100" height="100" relative="1" as="geometry">
            <Array as="points">
              <mxPoint x="4795.8125" y="185" />
              <mxPoint x="4817.095703125" y="185" />
            </Array>
          </mxGeometry>
        </mxCell>
        <mxCell id="ZIbTZjHyzcT9zax5rJuE-40" style="shape=folder;fontStyle=1;spacingTop=10;tabWidth=40;tabHeight=14;tabPosition=left;shadow=1;strokeWidth=2;fillColor=#FFFFFF;strokeColor=#000000;opacity=100.0;gliffyId=196;" vertex="1" parent="1">
          <mxGeometry x="4705.8125" y="161.71875" width="90" height="46.5625" as="geometry" />
        </mxCell>
        <mxCell id="ZIbTZjHyzcT9zax5rJuE-41" style="shape=rect;shadow=1;strokeWidth=2;fillColor=#FFFFFF;strokeColor=#000000;opacity=100.0;gliffyId=197;" vertex="1" parent="ZIbTZjHyzcT9zax5rJuE-40">
          <mxGeometry width="36" height="10" as="geometry" />
        </mxCell>
        <mxCell id="ZIbTZjHyzcT9zax5rJuE-42" value="&lt;div style=&#39;width: 87.0px;height:auto;word-break: break-word;&#39;&gt;&lt;div align=&quot;center&quot;&gt;&lt;span style=&quot;font-size: 12px; font-family: Arial; white-space: pre-wrap; font-weight: bold; text-decoration: none; line-height: 14px; color: rgb(0, 0, 0);&quot;&gt;System&lt;/span&gt;&lt;/div&gt;&lt;/div&gt;" style="shape=rect;shadow=1;strokeWidth=2;fillColor=#FFFFFF;strokeColor=#000000;opacity=100.0;html=1;nl2Br=0;verticalAlign=middle;align=center;spacingLeft=0.0;spacingRight=0;whiteSpace=wrap;gliffyId=198;" vertex="1" parent="ZIbTZjHyzcT9zax5rJuE-40">
          <mxGeometry y="10" width="90" height="36.5625" as="geometry" />
        </mxCell>
        <mxCell id="ZIbTZjHyzcT9zax5rJuE-43" style="shape=filledEdge;strokeWidth=2;strokeColor=#000000;fillColor=none;startArrow=none;startFill=0;startSize=6;endArrow=none;endFill=0;endSize=6;rounded=0;gliffyId=195;exitX=0.0;exitY=0.5;exitPerimeter=0;entryX=1.0;entryY=0.5;entryPerimeter=0;" edge="1" parent="1" source="ZIbTZjHyzcT9zax5rJuE-40" target="ZIbTZjHyzcT9zax5rJuE-34">
          <mxGeometry width="100" height="100" relative="1" as="geometry">
            <Array as="points">
              <mxPoint x="4705.8125" y="185" />
              <mxPoint x="4631.19384765625" y="418.28125" />
            </Array>
          </mxGeometry>
        </mxCell>
        <mxCell id="ZIbTZjHyzcT9zax5rJuE-44" style="shape=filledEdge;strokeWidth=2;strokeColor=#000000;fillColor=none;startArrow=none;startFill=0;startSize=6;endArrow=none;endFill=0;endSize=6;rounded=0;gliffyId=98;edgeStyle=orthogonalEdgeStyle;" edge="1" parent="1">
          <mxGeometry width="100" height="100" relative="1" as="geometry">
            <mxPoint x="4947.9404296875" y="2116.78125" as="sourcePoint" />
            <mxPoint x="4947.9404296875" y="2116.78125" as="targetPoint" />
          </mxGeometry>
        </mxCell>
        <mxCell id="ZIbTZjHyzcT9zax5rJuE-45" style="shape=folder;fontStyle=1;spacingTop=10;tabWidth=40;tabHeight=14;tabPosition=left;shadow=1;strokeWidth=2;fillColor=#FFFFFF;strokeColor=#000000;opacity=100.0;gliffyId=94;" vertex="1" parent="1">
          <mxGeometry x="4686.4873046875" y="657.0888671875" width="90" height="50" as="geometry" />
        </mxCell>
        <mxCell id="ZIbTZjHyzcT9zax5rJuE-46" style="shape=rect;shadow=1;strokeWidth=2;fillColor=#FFFFFF;strokeColor=#000000;opacity=100.0;gliffyId=95;" vertex="1" parent="ZIbTZjHyzcT9zax5rJuE-45">
          <mxGeometry width="36" height="10" as="geometry" />
        </mxCell>
        <mxCell id="ZIbTZjHyzcT9zax5rJuE-47" value="&lt;div style=&#39;width: 87.0px;height:auto;word-break: break-word;&#39;&gt;&lt;div align=&quot;center&quot;&gt;&lt;span style=&quot;font-size: 12px; font-family: Arial; white-space: pre-wrap; font-weight: bold; text-decoration: none; line-height: 14px; color: rgb(0, 0, 0);&quot;&gt;Title&lt;/span&gt;&lt;/div&gt;&lt;/div&gt;" style="shape=rect;shadow=1;strokeWidth=2;fillColor=#FFFFFF;strokeColor=#000000;opacity=100.0;html=1;nl2Br=0;verticalAlign=middle;align=center;spacingLeft=0.0;spacingRight=0;whiteSpace=wrap;gliffyId=96;" vertex="1" parent="ZIbTZjHyzcT9zax5rJuE-45">
          <mxGeometry y="10" width="90" height="40" as="geometry" />
        </mxCell>
        <mxCell id="ZIbTZjHyzcT9zax5rJuE-48" value="&lt;div style=&#39;width: 133.0px;height:auto;word-break: break-word;&#39;&gt;&lt;div align=&quot;center&quot;&gt;&lt;span style=&quot;font-size: 12px; font-family: Arial; white-space: pre-wrap; font-weight: bold; text-decoration: none; line-height: 14px; color: rgb(0, 0, 0);&quot;&gt;Title.cs &lt;/span&gt;&lt;/div&gt;&lt;div align=&quot;center&quot;&gt;&lt;span style=&quot;font-size: 12px; font-family: Arial; white-space: pre-wrap; font-weight: bold; text-decoration: none; line-height: 14px; color: rgb(0, 0, 0);&quot;&gt;Option.cs &lt;/span&gt;&lt;/div&gt;&lt;div align=&quot;center&quot;&gt;&lt;span style=&quot;font-size: 12px; font-family: Arial; white-space: pre-wrap; font-weight: bold; text-decoration: none; line-height: 14px; color: rgb(0, 0, 0);&quot;&gt;TitleManager.cs&lt;/span&gt;&lt;/div&gt;&lt;/div&gt;" style="shape=note;size=10;shadow=0;strokeWidth=1;fillColor=#FFFFFF;strokeColor=#000000;opacity=100.0;html=1;nl2Br=0;verticalAlign=middle;align=center;spacingLeft=2.0;spacingRight=0;whiteSpace=wrap;gliffyId=92;" vertex="1" parent="1">
          <mxGeometry x="4807.8408203125" y="650.9027099609375" width="140" height="62.8953971862793" as="geometry" />
        </mxCell>
        <mxCell id="ZIbTZjHyzcT9zax5rJuE-49" style="shape=filledEdge;strokeWidth=2;strokeColor=#000000;fillColor=none;startArrow=none;startFill=0;startSize=6;endArrow=none;endFill=0;endSize=6;rounded=0;gliffyId=91;exitX=1.0;exitY=0.5;exitPerimeter=0;entryX=0.0;entryY=0.5;entryPerimeter=0;" edge="1" parent="1" source="ZIbTZjHyzcT9zax5rJuE-45" target="ZIbTZjHyzcT9zax5rJuE-48">
          <mxGeometry width="100" height="100" relative="1" as="geometry">
            <Array as="points">
              <mxPoint x="4776.4873046875" y="682.0888671875" />
              <mxPoint x="4807.8408203125" y="682.350341796875" />
            </Array>
          </mxGeometry>
        </mxCell>
        <mxCell id="ZIbTZjHyzcT9zax5rJuE-50" style="shape=filledEdge;strokeWidth=2;strokeColor=#000000;fillColor=none;startArrow=none;startFill=0;startSize=6;endArrow=none;endFill=0;endSize=6;rounded=0;gliffyId=90;exitX=0.0;exitY=0.5;exitPerimeter=0;entryX=1.0;entryY=0.5;entryPerimeter=0;" edge="1" parent="1" source="ZIbTZjHyzcT9zax5rJuE-45" target="ZIbTZjHyzcT9zax5rJuE-24">
          <mxGeometry width="100" height="100" relative="1" as="geometry">
            <Array as="points">
              <mxPoint x="4686.4873046875" y="682.0888671875" />
              <mxPoint x="4631.19384765625" y="605.0697021484375" />
            </Array>
          </mxGeometry>
        </mxCell>
        <mxCell id="ZIbTZjHyzcT9zax5rJuE-51" style="shape=folder;fontStyle=1;spacingTop=10;tabWidth=40;tabHeight=14;tabPosition=left;shadow=1;strokeWidth=2;fillColor=#FFFFFF;strokeColor=#000000;opacity=100.0;gliffyId=81;" vertex="1" parent="1">
          <mxGeometry x="4817.14306640625" y="395" width="90" height="46.5625" as="geometry" />
        </mxCell>
        <mxCell id="ZIbTZjHyzcT9zax5rJuE-52" style="shape=rect;shadow=1;strokeWidth=2;fillColor=#FFFFFF;strokeColor=#000000;opacity=100.0;gliffyId=82;" vertex="1" parent="ZIbTZjHyzcT9zax5rJuE-51">
          <mxGeometry width="36" height="10" as="geometry" />
        </mxCell>
        <mxCell id="ZIbTZjHyzcT9zax5rJuE-53" value="&lt;div style=&#39;width: 87.0px;height:auto;word-break: break-word;&#39;&gt;&lt;div align=&quot;center&quot;&gt;&lt;span style=&quot;font-size: 12px; font-family: Arial; white-space: pre-wrap; font-weight: bold; text-decoration: none; line-height: 14px; color: rgb(0, 0, 0);&quot;&gt;Title&lt;/span&gt;&lt;/div&gt;&lt;/div&gt;" style="shape=rect;shadow=1;strokeWidth=2;fillColor=#FFFFFF;strokeColor=#000000;opacity=100.0;html=1;nl2Br=0;verticalAlign=middle;align=center;spacingLeft=0.0;spacingRight=0;whiteSpace=wrap;gliffyId=83;" vertex="1" parent="ZIbTZjHyzcT9zax5rJuE-51">
          <mxGeometry y="10" width="90" height="36.5625" as="geometry" />
        </mxCell>
        <mxCell id="ZIbTZjHyzcT9zax5rJuE-54" style="shape=folder;fontStyle=1;spacingTop=10;tabWidth=40;tabHeight=14;tabPosition=left;shadow=1;strokeWidth=2;fillColor=#FFFFFF;strokeColor=#000000;opacity=100.0;gliffyId=77;" vertex="1" parent="1">
          <mxGeometry x="4817.14306640625" y="330" width="90" height="46.5625" as="geometry" />
        </mxCell>
        <mxCell id="ZIbTZjHyzcT9zax5rJuE-55" style="shape=rect;shadow=1;strokeWidth=2;fillColor=#FFFFFF;strokeColor=#000000;opacity=100.0;gliffyId=78;" vertex="1" parent="ZIbTZjHyzcT9zax5rJuE-54">
          <mxGeometry width="36" height="10" as="geometry" />
        </mxCell>
        <mxCell id="ZIbTZjHyzcT9zax5rJuE-56" value="&lt;div style=&#39;width: 87.0px;height:auto;word-break: break-word;&#39;&gt;&lt;div align=&quot;center&quot;&gt;&lt;span style=&quot;font-size: 12px; font-family: Arial; white-space: pre-wrap; font-weight: bold; text-decoration: none; line-height: 14px; color: rgb(0, 0, 0);&quot;&gt;Option&lt;/span&gt;&lt;/div&gt;&lt;/div&gt;" style="shape=rect;shadow=1;strokeWidth=2;fillColor=#FFFFFF;strokeColor=#000000;opacity=100.0;html=1;nl2Br=0;verticalAlign=middle;align=center;spacingLeft=0.0;spacingRight=0;whiteSpace=wrap;gliffyId=79;" vertex="1" parent="ZIbTZjHyzcT9zax5rJuE-54">
          <mxGeometry y="10" width="90" height="36.5625" as="geometry" />
        </mxCell>
        <mxCell id="ZIbTZjHyzcT9zax5rJuE-57" style="shape=filledEdge;strokeWidth=2;strokeColor=#000000;fillColor=none;startArrow=none;startFill=0;startSize=6;endArrow=none;endFill=0;endSize=6;rounded=0;gliffyId=71;exitX=0.0;exitY=0.5;exitPerimeter=0;entryX=1.0;entryY=0.5;entryPerimeter=0;" edge="1" parent="1" source="ZIbTZjHyzcT9zax5rJuE-54" target="ZIbTZjHyzcT9zax5rJuE-64">
          <mxGeometry width="100" height="100" relative="1" as="geometry">
            <Array as="points">
              <mxPoint x="4817.14306640625" y="353.28125" />
              <mxPoint x="4776.48779296875" y="418.28125" />
            </Array>
          </mxGeometry>
        </mxCell>
        <mxCell id="ZIbTZjHyzcT9zax5rJuE-58" style="shape=filledEdge;strokeWidth=2;strokeColor=#000000;fillColor=none;startArrow=none;startFill=0;startSize=6;endArrow=none;endFill=0;endSize=6;rounded=0;gliffyId=70;edgeStyle=orthogonalEdgeStyle;" edge="1" parent="1" source="ZIbTZjHyzcT9zax5rJuE-51" target="ZIbTZjHyzcT9zax5rJuE-64">
          <mxGeometry width="100" height="100" relative="1" as="geometry">
            <Array as="points">
              <mxPoint x="4817.14306640625" y="418.28125" />
              <mxPoint x="4776.48779296875" y="418.28125" />
            </Array>
          </mxGeometry>
        </mxCell>
        <mxCell id="ZIbTZjHyzcT9zax5rJuE-59" style="shape=filledEdge;strokeWidth=2;strokeColor=#000000;fillColor=none;startArrow=none;startFill=0;startSize=6;endArrow=none;endFill=0;endSize=6;rounded=0;gliffyId=54;edgeStyle=orthogonalEdgeStyle;" edge="1" parent="1">
          <mxGeometry width="100" height="100" relative="1" as="geometry">
            <mxPoint x="5016.19384765625" y="146" as="sourcePoint" />
            <mxPoint x="5016.19384765625" y="146" as="targetPoint" />
          </mxGeometry>
        </mxCell>
        <mxCell id="ZIbTZjHyzcT9zax5rJuE-60" style="shape=folder;fontStyle=1;spacingTop=10;tabWidth=40;tabHeight=14;tabPosition=left;shadow=1;strokeWidth=2;fillColor=#FFFFFF;strokeColor=#000000;opacity=100.0;gliffyId=296;" vertex="1" parent="1">
          <mxGeometry x="4814.6865234375" y="260" width="90" height="46.5625" as="geometry" />
        </mxCell>
        <mxCell id="ZIbTZjHyzcT9zax5rJuE-61" style="shape=rect;shadow=1;strokeWidth=2;fillColor=#FFFFFF;strokeColor=#000000;opacity=100.0;gliffyId=297;" vertex="1" parent="ZIbTZjHyzcT9zax5rJuE-60">
          <mxGeometry width="36" height="10" as="geometry" />
        </mxCell>
        <mxCell id="ZIbTZjHyzcT9zax5rJuE-62" value="&lt;div style=&#39;width: 87.0px;height:auto;word-break: break-word;&#39;&gt;&lt;div align=&quot;center&quot;&gt;&lt;span style=&quot;font-size: 12px; font-family: Arial; white-space: pre-wrap; font-weight: bold; text-decoration: none; line-height: 14px; color: rgb(0, 0, 0);&quot;&gt;TitlePreset&lt;/span&gt;&lt;/div&gt;&lt;/div&gt;" style="shape=rect;shadow=1;strokeWidth=2;fillColor=#FFFFFF;strokeColor=#000000;opacity=100.0;html=1;nl2Br=0;verticalAlign=middle;align=center;spacingLeft=0.0;spacingRight=0;whiteSpace=wrap;gliffyId=298;" vertex="1" parent="ZIbTZjHyzcT9zax5rJuE-60">
          <mxGeometry y="10" width="90" height="36.5625" as="geometry" />
        </mxCell>
        <mxCell id="ZIbTZjHyzcT9zax5rJuE-63" style="shape=filledEdge;strokeWidth=2;strokeColor=#000000;fillColor=none;startArrow=none;startFill=0;startSize=6;endArrow=none;endFill=0;endSize=6;rounded=0;gliffyId=303;exitX=0.0;exitY=0.5;exitPerimeter=0;entryX=1.0;entryY=0.5;entryPerimeter=0;" edge="1" parent="1" source="ZIbTZjHyzcT9zax5rJuE-60" target="ZIbTZjHyzcT9zax5rJuE-64">
          <mxGeometry width="100" height="100" relative="1" as="geometry">
            <Array as="points">
              <mxPoint x="4814.68701171875" y="283.28125" />
              <mxPoint x="4776.48779296875" y="418.28125" />
            </Array>
          </mxGeometry>
        </mxCell>
        <mxCell id="ZIbTZjHyzcT9zax5rJuE-64" style="shape=folder;fontStyle=1;spacingTop=10;tabWidth=40;tabHeight=14;tabPosition=left;shadow=1;strokeWidth=2;fillColor=#FFFFFF;strokeColor=#000000;opacity=100.0;gliffyId=327;" vertex="1" parent="1">
          <mxGeometry x="4686.4873046875" y="395" width="90" height="46.5625" as="geometry" />
        </mxCell>
        <mxCell id="ZIbTZjHyzcT9zax5rJuE-65" style="shape=rect;shadow=1;strokeWidth=2;fillColor=#FFFFFF;strokeColor=#000000;opacity=100.0;gliffyId=328;" vertex="1" parent="ZIbTZjHyzcT9zax5rJuE-64">
          <mxGeometry width="36" height="10" as="geometry" />
        </mxCell>
        <mxCell id="ZIbTZjHyzcT9zax5rJuE-66" value="&lt;div style=&#39;width: 87.0px;height:auto;word-break: break-word;&#39;&gt;&lt;div align=&quot;center&quot;&gt;&lt;span style=&quot;font-size: 12px; font-family: Arial; white-space: pre-wrap; font-weight: bold; text-decoration: none; line-height: 14px; color: rgb(0, 0, 0);&quot;&gt;TitleManager&lt;/span&gt;&lt;/div&gt;&lt;/div&gt;" style="shape=rect;shadow=1;strokeWidth=2;fillColor=#FFFFFF;strokeColor=#000000;opacity=100.0;html=1;nl2Br=0;verticalAlign=middle;align=center;spacingLeft=0.0;spacingRight=0;whiteSpace=wrap;gliffyId=329;" vertex="1" parent="ZIbTZjHyzcT9zax5rJuE-64">
          <mxGeometry y="10" width="90" height="36.5625" as="geometry" />
        </mxCell>
        <mxCell id="ZIbTZjHyzcT9zax5rJuE-67" style="shape=filledEdge;strokeWidth=2;strokeColor=#000000;fillColor=none;startArrow=none;startFill=0;startSize=6;endArrow=none;endFill=0;endSize=6;rounded=0;gliffyId=335;edgeStyle=orthogonalEdgeStyle;" edge="1" parent="1" source="ZIbTZjHyzcT9zax5rJuE-34" target="ZIbTZjHyzcT9zax5rJuE-64">
          <mxGeometry width="100" height="100" relative="1" as="geometry">
            <Array as="points">
              <mxPoint x="4631.19384765625" y="418.28125" />
              <mxPoint x="4686.4873046875" y="418.28125" />
            </Array>
          </mxGeometry>
        </mxCell>
      </root>
    </mxGraphModel>
  </diagram>
</mxfile>
